<svg width="70" height="18" viewBox="0 0 70 18" fill="none" xmlns="http://www.w3.org/2000/svg">
<path d="M8.53125 11.7656H11.0977L10.5703 9.82031C10.3125 8.83594 10.1367 8.07812 10.043 7.54688C9.94922 7.01562 9.89062 6.51562 9.86719 6.04688H9.76172C9.73828 6.51562 9.67969 7.01562 9.58594 7.54688C9.49219 8.07812 9.31641 8.83594 9.05859 9.82031L8.53125 11.7656ZM0.351562 18L6.46875 0.84375H13.3359L19.3359 18H12.7031L12.1523 15.8438H7.5L6.97266 18H0.351562ZM43.3828 11.7656H45.9492L45.4219 9.82031C45.1641 8.83594 44.9883 8.07812 44.8945 7.54688C44.8008 7.01562 44.7422 6.51562 44.7188 6.04688H44.6133C44.5898 6.51562 44.5312 7.01562 44.4375 7.54688C44.3438 8.07812 44.168 8.83594 43.9102 9.82031L43.3828 11.7656ZM35.2031 18L41.3203 0.84375H48.1875L54.1875 18H47.5547L47.0039 15.8438H42.3516L41.8242 18H35.2031ZM57.0703 18V10.418L51.3281 0.84375H58.3594L59.8008 4.17188C59.9336 4.46094 60.0898 4.89062 60.2695 5.46094C60.2852 5.51562 60.2969 5.55859 60.3047 5.58984C60.3906 5.31641 60.5391 4.91406 60.75 4.38281C60.7891 4.28906 60.8164 4.22266 60.832 4.18359L62.25 0.84375H69.2344L63.2812 10.418V18H57.0703Z" fill="#24252D"/>
<path d="M26.3438 5.26172V8.61328H27.3047C27.8906 8.61328 28.3398 8.47266 28.6523 8.19141C28.9727 7.90234 29.1328 7.49219 29.1328 6.96094C29.1328 6.41406 28.9727 5.99609 28.6523 5.70703C28.3398 5.41016 27.8906 5.26172 27.3047 5.26172H26.3438ZM20.2969 18V0.84375H28.0547C30.3047 0.84375 32.0234 1.33984 33.2109 2.33203C34.3984 3.32422 34.9922 4.75391 34.9922 6.62109C34.9922 7.83984 34.6914 8.84375 34.0898 9.63281C33.4961 10.4219 32.6914 10.8828 31.6758 11.0156L36.2578 18H29.3438L26.3438 12.3398V18H20.2969Z" fill="#FF5C00"/>
</svg>
