<svg width="20" height="22" viewBox="0 0 20 22" fill="none" xmlns="http://www.w3.org/2000/svg">
<path d="M18.116 4.901C18.0348 4.79322 17.948 4.68975 17.856 4.591C17.9485 4.34444 18.0188 4.09009 18.066 3.831C18.2053 2.8832 18.0843 1.91535 17.716 1.031C17.716 1.031 16.596 0.681 14.026 2.411C12.9349 2.10974 11.8079 1.95835 10.676 1.961C9.54084 1.95901 8.41062 2.11038 7.316 2.411C4.746 0.661 3.626 1.031 3.626 1.031C3.26208 1.90598 3.14115 2.863 3.276 3.801C3.32345 4.07087 3.39713 4.33545 3.496 4.591C3.406 4.691 3.316 4.801 3.236 4.901C2.48978 5.83702 2.09367 7.00414 2.116 8.201C2.11362 8.48486 2.12698 8.76862 2.156 9.051C2.476 13.481 5.426 14.511 8.236 14.831C7.83828 15.2008 7.56859 15.6877 7.46599 16.221C7.37305 16.5767 7.32931 16.9434 7.336 17.311V18.621C6.217 18.721 5.06899 18.558 4.713 17.56C4.33085 16.6048 3.69707 15.7709 2.879 15.147C2.81921 15.1146 2.76233 15.0772 2.709 15.035C2.63716 14.8462 2.50989 14.6836 2.3439 14.5684C2.17792 14.4533 1.98099 14.3911 1.779 14.39H1.774C1.50964 14.39 1.25604 14.4947 1.06865 14.6811C0.881257 14.8676 0.775317 15.1207 0.773995 15.385C0.770995 16.197 1.584 16.722 1.917 16.9C2.30605 17.292 2.61901 17.7528 2.84 18.259C3.204 19.282 4.269 20.837 7.30599 20.635L7.30799 20.733L7.312 21.001C7.312 21.2662 7.41735 21.5206 7.60489 21.7081C7.79243 21.8956 8.04678 22.001 8.312 22.001H13.026C13.2912 22.001 13.5456 21.8956 13.7331 21.7081C13.9206 21.5206 14.026 21.2662 14.026 21.001C14.026 21.001 14.034 17.841 14.034 17.311C14.0407 16.9434 13.9969 16.5767 13.904 16.221L13.902 16.215L13.906 16.221C13.897 16.186 13.884 16.158 13.874 16.124C13.7626 15.6285 13.5047 15.178 13.134 14.831L13.146 14.852L13.126 14.832C15.936 14.512 18.866 13.462 19.186 9.052C19.215 8.76962 19.2284 8.48585 19.226 8.202C19.2437 7.00751 18.852 5.84295 18.116 4.902V4.901Z" fill="#121317"/>
</svg>
