<svg width="34" height="32" viewBox="0 0 34 32" fill="none" xmlns="http://www.w3.org/2000/svg">
<path d="M9.29163 23.9684L11.375 21.3651L4.6683 16.0001L11.375 10.6351L9.29163 8.03172L0.958301 14.6984C0.763044 14.8545 0.605415 15.0526 0.49709 15.2779C0.388765 15.5032 0.33252 15.75 0.33252 16.0001C0.33252 16.2501 0.388765 16.4969 0.49709 16.7222C0.605415 16.9475 0.763044 17.1456 0.958301 17.3017L9.29163 23.9684ZM24.7083 8.03172L22.625 10.6351L29.3316 16.0001L22.625 21.3651L24.7083 23.9684L33.0416 17.3017C33.2369 17.1456 33.3945 16.9475 33.5028 16.7222C33.6112 16.4969 33.6674 16.2501 33.6674 16.0001C33.6674 15.75 33.6112 15.5032 33.5028 15.2779C33.3945 15.0526 33.2369 14.8545 33.0416 14.6984L24.7083 8.03172ZM21.96 1.36005L15.2933 31.3601L12.0383 30.6367L18.705 0.636719L21.96 1.36005Z" fill="#FF5C00"/>
</svg>
