<svg width="112" height="131" viewBox="0 0 112 131" fill="none" xmlns="http://www.w3.org/2000/svg">
<path d="M75.48 107.53C74.4274 109.006 73.1503 115.498 73.6459 116.587C74.4016 118.169 76.4529 118.387 77.1628 116.992C79.3679 112.718 77.8478 104.157 75.48 107.53Z" fill="#FFB800"/>
<path d="M34.9692 31.269C34.1279 33.4416 32.8949 39.2963 32.17 42.7912C31.9657 43.8751 32.5877 44.8863 33.5841 45.2316C36.4835 46.1921 38.4336 40.7239 38.7462 31.0363C38.8341 28.6302 35.9976 28.7634 34.9692 31.269Z" fill="#FFB800"/>
<path d="M47.9409 29.3449C52.3301 30.3907 54.9379 30.3111 55.2298 29.0862C55.6067 27.504 52.0293 26.2201 46.3106 25.7744C40.147 25.3846 41.255 27.752 47.9409 29.3449Z" fill="#FFB800"/>
<path d="M41.3848 3.88885C40.0383 4.10738 36.626 20.014 37.6928 20.9693C40.6357 23.5582 42.59 21.9205 43.495 16.3112C45.2613 4.59678 45.0817 3.31343 41.3848 3.88885Z" fill="#FFB800"/>
<path d="M26.6339 20.9759C23.1172 20.5695 22.1645 20.7198 21.9091 21.7916C21.5078 23.4758 31.618 26.3162 34.3938 25.3056C37.7018 24.0981 33.5654 21.7645 26.6339 20.9759Z" fill="#FFB800"/>
<path d="M77.6225 101.029C78.5655 101.146 79.4502 100.601 79.6691 99.6826C81.3592 93.721 82.5119 89.7887 78.4335 90.3811C77.646 90.5171 76.593 94.2574 76.2059 98.372C76.016 100.754 76.0549 100.817 77.6225 101.029Z" fill="#FFB800"/>
<path d="M81.1313 104.185C79.3911 104.472 79.2524 105.733 80.9026 106.504C82.3486 107.226 88.5776 107.793 89.9217 107.359C92.3936 106.491 84.4975 103.639 81.1313 104.185Z" fill="#FFB800"/>
<path d="M74.1513 102.466C72.6641 101.464 72.3068 101.379 69.5215 101.524C65.3119 101.762 66.5682 103.733 71.2564 104.203C74.518 104.549 75.9084 103.693 74.1513 102.466Z" fill="#FFB800"/>
<path d="M73.9585 77.0189C75.7452 75.1793 75.9814 72.3771 74.5964 70.2672C71.1533 65.0242 68.5685 56.8575 67.8309 48.8613C67.3869 44.3868 67.5621 26.8999 68.0607 24.8074C68.693 22.1534 66.1001 20.1332 63.825 21.5328C63.3194 21.8438 62.3834 23.5087 61.8047 25.2585C58.6948 34.01 48.535 53.1091 44.0646 58.5161C41.867 61.1747 38.1117 63.3542 34.5558 64.0171C31.508 64.5854 31.4593 64.7895 34.1735 68.5644C39.5509 76.1021 41.7679 88.9813 40.9361 108.092C40.197 125.229 47.0247 121.246 47.2027 117.783C47.4589 111.048 60.1052 91.2469 72.1087 78.8973L73.9585 77.0189ZM67.9243 73.3698C61.4658 78.5189 53.7478 87.1434 49.3841 94.1399L47.359 97.4328L47.4859 93.9573C48.2042 70.3433 39.0298 66.9708 38.2401 65.7579C39.6426 64.8516 51.3191 60.8918 59.5166 47.3118C62.0036 43.212 61.7484 43.1512 62.1293 47.6646C62.8474 56.1956 64.9388 63.4896 68.1025 68.7739L69.9175 71.7952L67.9243 73.3698Z" fill="#FFB800"/>
</svg>
