<svg width="600" height="617" viewBox="0 0 600 617" fill="none" xmlns="http://www.w3.org/2000/svg">
<path d="M567.043 67.3034C568.474 65.54 566.131 61.9067 562.025 59.6628C555.57 56.1527 428.199 39.4614 366.321 33.9598C237.016 22.5863 93.0625 21.5945 101.502 32.0819C103.793 35.0333 102.441 34.8885 134.034 34.44C165.246 34.0635 237.479 37.9692 291.654 41.1805C228.795 40.1957 168.441 43.6509 123.774 43.2623C92.8795 42.9964 92.2417 43.1535 98.2628 49.5486C104.727 56.4422 107.762 57.1056 129.044 56.6799C187.662 55.5191 298.295 61.5096 423.046 72.5077C529.22 81.854 542.196 82.4549 541.066 77.9368C538.94 68.8022 470.37 63.1468 367.48 52.1231C411.267 53.7703 437.168 54.2905 514.152 62.5386C546.787 66.2607 566.48 67.9196 567.043 67.3034Z" fill="black"/>
<path d="M41.1965 505.688L44.8049 505.624C45.5834 523.859 45.0188 527.97 51.9609 530.405C55.7944 531.718 61.1628 529.136 61.6524 524.566C62.2376 519.104 62.591 510.01 62.9157 495.388C63.5446 467.494 66.6418 423.517 79.5196 259.275C87.053 163.46 82.987 211.843 86.9445 114.63C89.9698 42.3465 89.8881 39.6318 84.0576 39.5709C78.7183 39.5626 71.2876 91.5309 68.4456 147.035C64.2328 232.721 55.8989 307.029 56.0202 302.419C56.7513 275.89 59.7504 215.441 61.4519 189.129C65.7198 126.111 67.8506 37.8345 65.3849 34.1879C63.2278 31.1382 58.8111 31.7925 57.6683 35.5033C56.0259 40.4009 52.7451 72.1816 49.0354 120.715C47.1534 144.077 30.2789 404.739 29.6064 417.971C25.6806 492.864 27.3768 506.011 41.1965 505.688Z" fill="black"/>
<path d="M538.485 555.247L534.556 554.826C541.005 428.566 541.095 360.478 558.503 175.976C566.773 88.3578 566.8 89.2627 560.946 89.4247C557.337 89.489 555.952 97.7953 547.594 172.326C542.297 219.449 540.723 230.668 541.168 219.554C543.084 162.26 544.401 130.268 545.329 112.329C545.821 104.264 546.024 98.8749 546.05 95.1571C546.006 88.6132 537.549 75.9817 534.546 93.5863C532.905 103.107 531.581 120.101 530.624 145.253C529.79 165.796 527.751 185.984 518.39 261.76C504.012 379.729 501.608 409.124 498.793 510.743C498.186 533.791 497.261 552.86 496.881 552.932C496.096 553.298 487.969 552.653 396.998 546.289C259.941 536.565 169.197 532.706 73.2247 532.457C35.8497 532.399 50.8387 532.765 41.8041 532.473C31.2841 532.135 29.3848 533.623 34.0878 538.411C36.2176 540.556 38.2942 540.891 54.5251 542.405C100.148 546.617 164.578 551.49 207.754 554.199C251.556 556.863 315.592 561.92 304.177 561.824C280.107 561.613 236.206 558.713 151.735 558.908C92.3535 559.085 41.5454 556.911 39.1189 554.058C37.8997 552.687 33.7511 553.145 33.5959 554.594C32.6763 563.177 81.6932 569.329 210.054 576.768C292.011 581.49 340.067 586.189 440.239 599.402C467.793 603.031 482.982 604.996 490.876 605.504C505.804 606.427 494.73 597.348 491.241 596.298C482.727 593.469 458.662 590.89 378.791 581.769C313.028 574.273 273.318 569.341 280.376 569.534C328.631 571.209 382.978 573.988 444.79 577.792C492.901 580.804 494.656 580.654 488.401 574.121C483.488 568.972 366.552 556.894 244.695 549.025C230.516 548.069 180.622 544.301 180.622 544.301C283.204 546.611 404.355 556.435 476.956 560.38C500.416 561.653 497.365 558.846 497.437 579.035C497.498 599.336 497.322 598.64 501.988 599.14C504.075 599.364 505.84 597.973 505.92 596.065L508.038 561.23L517.909 561.835C517.746 577.264 516.869 579.651 521.784 581.305C531.601 584.725 531.52 578.514 533.865 562.417L539.218 562.316C548.522 562.41 547.939 556.26 538.485 555.247ZM518.499 554.006L508.47 553.722C509.343 513.115 510.836 474.829 512.736 440.871C513.099 435.16 519.719 435.982 519.546 439.909C518.489 468.321 517.199 525.569 520.038 526.888C522.404 525.676 520.446 535.838 518.499 554.006Z" fill="black"/>
</svg>
