<svg width="1440" height="919" viewBox="0 0 1440 919" fill="none" xmlns="http://www.w3.org/2000/svg">
<path d="M1695.48 397.338C1579.86 380.059 979.94 510.624 978.311 509.499C974.672 503.616 1292.06 403.683 1479.13 352.369C1665.19 301.808 1683.71 291.015 1640.59 260.754C1605.62 236.12 1553.39 232.297 1449.2 247.946C943.153 322.042 37.829 518.458 -160.356 591.453C-232.093 617.962 -201.49 654.5 -138.618 652.675C-3.10256 649.515 470.842 543.141 607.71 517.811C503.93 562.141 174.78 675.615 -166.699 850.85C-301.763 920.266 -209.385 981.658 27.4932 900.728C454.299 754.579 1382.73 502.401 1683.52 450.206C1756.02 437.223 1762.12 406.781 1695.48 397.338Z" fill="#121317"/>
</svg>
