<svg width="308" height="22" viewBox="0 0 308 22" fill="none" xmlns="http://www.w3.org/2000/svg">
<path fill-rule="evenodd" clip-rule="evenodd" d="M271.783 2.74364C231.037 0.343892 152.041 -0.733547 110.657 0.53979C71.3309 1.76415 25.05 5.87802 5.1172 5.87802C-0.123074 5.87802 -0.465946 5.92699 0.317647 6.71058C1.49303 7.88597 11.0921 8.13084 28.0374 7.39622C41.1626 6.8575 41.4564 6.85751 43.5134 7.837C45.5703 8.81649 45.9131 8.81649 58.2547 8.32675C82.3501 7.34726 99.1484 6.26982 106.005 6.31879C112.225 6.36776 113.253 7.24931 101.646 7.78803C74.7101 9.11034 74.4163 9.15931 76.1793 10.8734C76.9629 11.657 77.9914 11.755 87.1007 11.608C97.0915 11.4611 96.7486 11.2162 97.924 12.3426C98.7076 13.0773 99.7361 13.4691 100.814 13.518C109.09 13.616 132.402 14.1547 132.402 14.1547C126.035 14.3506 118.248 14.9873 117.857 15.3791C116.094 17.1422 118.395 17.2891 147.682 17.7298C180.642 18.1706 205.619 19.8358 208.753 21.0111C209.537 21.305 209.978 20.7173 209.439 20.0317C207.578 17.7788 176.381 17.0442 163.501 16.3586C160.856 16.2116 159.191 15.3301 166.243 15.0852C182.993 14.5465 176.969 12.8324 175.157 12.6855C172.708 12.4896 167.076 12.5385 153.167 12.2937C146.458 12.1957 149.102 11.3632 153.461 11.3142C193.718 10.7755 199.546 11.1183 199.546 10.8734C199.546 9.25725 198.126 9.06137 180.348 8.81649C164.627 8.57162 168.202 7.59213 178.242 7.54315C193.033 7.49418 221.389 7.98391 221.781 7.39622C222.564 6.07391 220.507 5.24135 215.757 4.89853C208.313 4.35981 238.285 4.9475 259.981 5.73109C300.483 7.20033 307.241 8.86546 307.241 7.20033C307.339 4.89852 306.213 4.7516 271.783 2.74364Z" fill="#FF5C00"/>
</svg>
